HIERARCHY
ROOT Hips
{
	OFFSET -0.001795 -0.223333 0.028219
	CHANNELS 6 Xposition Yposition Zposition Zrotation Yrotation Xrotation 
	JOINT LeftUpLeg
	{
		OFFSET 0.069520 -0.091406 -0.006815
		CHANNELS 3 Zrotation Yrotation Xrotation
		JOINT LeftLeg
		{
			OFFSET 0.034277 -0.375199 -0.004496
			CHANNELS 3 Zrotation Yrotation Xrotation
			JOINT LeftFoot
			{
				OFFSET -0.013596 -0.397961 -0.043693
				CHANNELS 3 Zrotation Yrotation Xrotation
				JOINT LeftToe
				{
					OFFSET 0.026358 -0.055791 0.119288
					CHANNELS 3 Zrotation Yrotation Xrotation
					End Site
					{
						OFFSET 0.000000 0.000000 0.000000
					}
				}
			}
		}
	}
	JOINT RightUpLeg
	{
		OFFSET -0.067670 -0.090522 -0.004320
		CHANNELS 3 Zrotation Yrotation Xrotation
		JOINT RightLeg
		{
			OFFSET -0.038290 -0.382569 -0.008850
			CHANNELS 3 Zrotation Yrotation Xrotation
			JOINT RightFoot
			{
				OFFSET 0.015774 -0.398415 -0.042312
				CHANNELS 3 Zrotation Yrotation Xrotation
				JOINT RightToe
				{
					OFFSET -0.025372 -0.048144 0.123348
					CHANNELS 3 Zrotation Yrotation Xrotation
					End Site
					{
						OFFSET 0.000000 0.000000 0.000000
					}
				}
			}
		}
	}
	JOINT Spine
	{
		OFFSET -0.002533 0.108963 -0.026696
		CHANNELS 3 Zrotation Yrotation Xrotation
		JOINT Spine1
		{
			OFFSET 0.005487 0.135180 0.001092
			CHANNELS 3 Zrotation Yrotation Xrotation
			JOINT Spine2
			{
				OFFSET 0.001457 0.052922 0.025425
				CHANNELS 3 Zrotation Yrotation Xrotation
				JOINT Neck
				{
					OFFSET -0.002778 0.213870 -0.042857
					CHANNELS 3 Zrotation Yrotation Xrotation
					JOINT Head
					{
						OFFSET 0.005152 0.064970 0.051349
						CHANNELS 3 Zrotation Yrotation Xrotation
						End Site
						{
							OFFSET 0.000000 0.000000 0.000000
						}
					}
				}
				JOINT LeftShoulder
				{
					OFFSET 0.078845 0.121749 -0.034090
					CHANNELS 3 Zrotation Yrotation Xrotation
					JOINT LeftArm
					{
						OFFSET 0.090977 0.030469 -0.008868
						CHANNELS 3 Zrotation Yrotation Xrotation
						JOINT LeftForeArm
						{
							OFFSET 0.259612 -0.012772 -0.027456
							CHANNELS 3 Zrotation Yrotation Xrotation
							JOINT LeftHand
							{
								OFFSET 0.249234 0.008986 -0.001171
								CHANNELS 3 Zrotation Yrotation Xrotation
								End Site
								{
									OFFSET 0.000000 0.000000 0.000000
								}
							}
						}
					}
				}
				JOINT RightShoulder
				{
					OFFSET -0.081759 0.118833 -0.038615
					CHANNELS 3 Zrotation Yrotation Xrotation
					JOINT RightArm
					{
						OFFSET -0.096012 0.032551 -0.009143
						CHANNELS 3 Zrotation Yrotation Xrotation
						JOINT RightForeArm
						{
							OFFSET -0.253742 -0.013329 -0.021401
							CHANNELS 3 Zrotation Yrotation Xrotation
							JOINT RightHand
							{
								OFFSET -0.255298 0.007772 -0.005559
								CHANNELS 3 Zrotation Yrotation Xrotation
								End Site
								{
									OFFSET 0.000000 0.000000 0.000000
								}
							}
						}
					}
				}
			}
		}
	}
}
MOTION
Frames: 13
Frame Time: 0.050000
0.000000 0.694275 0.000000 -7.247753 -3.906656 -4.157520 21.892970 4.793640 -39.542714 -14.626791 12.255222 77.505472 -17.974611 -36.032513 3.052967 0.000000 0.000000 0.000000 0.597102 5.563409 -44.668639 8.996865 -3.589757 80.797072 -38.379775 -54.124761 28.575369 0.000000 0.000000 0.000000 -1.529773 -0.582469 27.327541 -3.531415 1.618845 -5.409772 -4.938561 2.888930 3.053392 11.569606 -7.224069 -9.222346 0.000000 0.000000 0.000000 -19.494557 -18.349171 7.299051 -41.568429 -12.844170 -0.396066 1.953827 -21.845668 0.353655 0.000000 0.000000 0.000000 18.736748 7.405478 2.798903 35.817468 22.686101 2.630635 -133.922111 63.218312 -103.305539 0.000000 0.000000 0.000000 
-0.006283 0.700655 0.009543 -6.806980 -4.082076 -3.537947 22.309283 4.729430 -37.712071 -15.230195 12.527959 75.043666 -16.610587 -37.161112 -0.271842 0.000000 0.000000 0.000000 1.806911 6.121127 -44.941977 7.750916 -2.191927 81.268774 -38.777873 -52.851911 31.849386 0.000000 0.000000 0.000000 0.111381 -0.923399 26.107028 -3.410489 1.528861 -7.311460 -6.413394 5.065524 1.510856 12.724913 -7.740864 -9.566945 0.000000 0.000000 0.000000 -23.222102 -19.476421 7.285496 -40.340677 -8.361718 -1.365717 -0.207284 -19.222844 0.617987 0.000000 0.000000 0.000000 21.046539 5.426273 2.370445 39.909416 17.847264 1.421666 -137.441796 75.166347 -118.607549 0.000000 0.000000 0.000000 
-0.009074 0.721872 0.019208 -5.201948 -1.411823 -3.898428 19.555610 2.978883 -35.216269 -15.302248 10.658958 70.638559 -17.403218 -36.292762 1.843167 0.000000 0.000000 0.000000 1.516108 4.725107 -39.056504 4.745547 -0.295850 78.246661 -28.732893 -49.866900 15.811394 0.000000 0.000000 0.000000 0.047304 -0.908898 22.293945 -0.792365 0.467883 -5.316457 -8.539515 4.369923 2.035401 12.532334 -7.157015 -11.136401 0.000000 0.000000 0.000000 -24.432573 -18.158609 6.161160 -42.099096 -9.490200 -0.924694 2.729532 -14.264392 0.090378 0.000000 0.000000 0.000000 23.154450 4.491299 2.200505 40.889468 16.273188 0.785874 -130.700738 81.442714 -116.362838 0.000000 0.000000 0.000000 
-0.009004 0.753050 0.027906 -4.552816 -1.799656 -3.760339 17.456035 2.045266 -30.579395 -14.047763 8.729886 63.706340 -16.335591 -35.088517 0.792103 0.000000 0.000000 0.000000 1.238232 4.165203 -35.120669 3.041287 1.497721 72.794480 -23.962920 -44.989475 12.627727 0.000000 0.000000 0.000000 0.773474 -0.907462 19.705285 -0.855196 0.487377 -5.221909 -8.638760 4.318050 2.404166 12.163412 -6.502773 -12.840985 0.000000 0.000000 0.000000 -22.873648 -15.820033 4.888472 -44.526269 -10.099370 -0.902814 0.876186 -12.295730 0.283780 0.000000 0.000000 0.000000 19.081880 1.924364 0.603806 47.551569 15.073900 0.928654 -66.343505 84.970978 -55.047525 0.000000 0.000000 0.000000 
-0.007304 0.794150 0.034741 -3.415639 -1.171231 -3.405708 15.389256 1.127330 -25.224174 -14.044983 7.187450 53.537265 -17.815162 -32.216764 5.968235 0.000000 0.000000 0.000000 0.003259 3.054877 -29.183285 1.448952 2.148359 61.739444 -23.216247 -43.740058 12.957083 0.000000 0.000000 0.000000 1.202401 -0.800597 15.835352 -0.934374 0.518989 -4.490992 -7.637366 3.794313 3.271063 11.718531 -6.165285 -13.299531 0.000000 0.000000 0.000000 -23.566536 -15.189809 4.768798 -45.503176 -9.495427 -1.286598 -0.353034 -10.737533 0.376999 0.000000 0.000000 0.000000 17.528964 1.621939 0.346886 51.246657 12.588267 0.132033 -19.118351 77.463820 -9.824728 0.000000 0.000000 0.000000 
-0.005678 0.839031 0.039993 -3.000877 0.429581 -1.984222 13.423061 0.365274 -19.336162 -12.797621 4.645672 39.981944 -18.318834 -30.617528 8.591904 0.000000 0.000000 0.000000 -1.169899 2.183607 -24.038882 1.373008 1.191104 48.850385 -24.974447 -43.623722 18.847315 0.000000 0.000000 0.000000 1.872657 -0.693516 11.810343 -0.816648 0.485143 -4.421387 -6.872368 3.753526 4.180501 11.195900 -5.327289 -15.325844 0.000000 0.000000 0.000000 -20.949428 -13.233729 3.586678 -49.561314 -9.240403 -1.656931 -1.434229 -10.870440 0.475187 0.000000 0.000000 0.000000 16.738146 -0.482295 -0.604817 54.270437 11.180531 -0.397684 -7.222460 66.518468 -0.053882 0.000000 0.000000 0.000000 
-0.004436 0.880091 0.043473 -2.757354 0.163964 -0.370025 11.098612 -0.052051 -14.019825 -9.866102 2.554180 27.296554 -20.068693 -26.099053 16.467155 0.000000 0.000000 0.000000 -1.455060 1.679983 -18.789604 0.789642 1.121851 36.022845 -23.294313 -40.833088 20.659572 0.000000 0.000000 0.000000 2.591464 -0.518677 7.787727 -0.694530 0.404612 -3.410767 -6.628916 3.973668 4.022949 11.515126 -5.679790 -14.576867 0.000000 0.000000 0.000000 -19.941926 -10.780966 2.305931 -51.405067 -8.027418 -2.286830 -1.816329 -10.957644 0.510501 0.000000 0.000000 0.000000 17.825279 -1.002598 -0.916666 55.453591 9.473844 -1.151247 -2.798106 57.459860 2.200658 0.000000 0.000000 0.000000 
-0.003586 0.909728 0.045818 -2.501138 1.050350 1.574880 8.764331 -0.331057 -11.194762 -6.435111 1.058240 17.908850 -21.832733 -22.048761 24.492851 0.000000 0.000000 0.000000 -2.035027 1.224709 -14.356968 0.710710 0.697970 25.093137 -20.760680 -37.423489 21.214671 0.000000 0.000000 0.000000 3.168470 -0.333684 4.170668 -0.580876 0.360215 -3.406794 -6.061820 4.382340 4.076471 11.016271 -5.428699 -13.933917 0.000000 0.000000 0.000000 -19.842876 -9.431028 1.402172 -51.708473 -7.975740 -2.292627 -3.251712 -11.333212 0.656202 0.000000 0.000000 0.000000 18.510335 -1.560594 -1.087825 56.376673 8.537452 -1.572671 -1.077325 49.111534 2.579826 0.000000 0.000000 0.000000 
-0.002607 0.924782 0.048000 -2.401197 1.508286 2.755603 7.526137 -0.389861 -8.651332 -4.505557 0.512529 10.958046 -22.481381 -20.036583 28.207718 0.000000 0.000000 0.000000 -2.085908 0.991339 -11.485718 -0.009562 0.627301 16.997667 -21.046785 -36.426922 25.711264 0.000000 0.000000 0.000000 3.650290 -0.170312 1.409816 -0.752715 0.429495 -3.039324 -5.710823 4.338145 4.249320 10.811667 -5.519160 -12.901353 0.000000 0.000000 0.000000 -19.497960 -8.539574 0.937125 -51.917286 -8.105447 -2.265324 -3.335455 -11.353365 0.662522 0.000000 0.000000 0.000000 18.512322 -1.619585 -1.088667 57.301863 7.468174 -2.073080 1.170519 42.069646 2.886018 0.000000 0.000000 0.000000 
-0.001337 0.932822 0.050261 -1.995448 2.216546 3.369418 6.691807 -0.379163 -6.429016 -3.852407 0.385289 5.735546 -23.152236 -18.867540 30.859070 0.000000 0.000000 0.000000 -2.093654 0.774944 -8.800262 -1.323908 0.640501 10.264431 -22.389621 -36.468651 30.871250 0.000000 0.000000 0.000000 3.672392 -0.057568 -0.258450 -0.583200 0.356080 -2.913196 -5.616266 4.570800 3.748936 10.682251 -5.498814 -12.335332 0.000000 0.000000 0.000000 -19.496687 -8.263909 0.612488 -51.606637 -7.998040 -2.210454 -3.994583 -11.570736 0.729213 0.000000 0.000000 0.000000 19.914254 -1.951627 -1.186945 57.493168 6.514490 -2.556730 2.556203 35.271787 2.716708 0.000000 0.000000 0.000000 
0.000202 0.937037 0.052602 -1.966522 1.703026 3.540232 6.037185 -0.322656 -4.589526 -3.002716 0.291605 2.531777 -22.970609 -17.991475 31.800563 0.000000 0.000000 0.000000 -2.115409 0.636035 -7.025994 -1.615393 0.530430 6.820842 -21.620310 -35.539029 31.240821 0.000000 0.000000 0.000000 4.161453 0.029355 -1.532815 -1.027804 0.543027 -2.657818 -5.252947 5.148414 3.685052 10.468431 -5.296119 -12.495207 0.000000 0.000000 0.000000 -19.075508 -7.880480 0.394302 -51.714203 -8.188431 -2.134380 -3.958584 -12.029729 0.746922 0.000000 0.000000 0.000000 19.906727 -2.140284 -1.239406 58.561599 6.007821 -2.801338 2.718538 29.709889 2.218811 0.000000 0.000000 0.000000 
0.001566 0.939492 0.054906 -1.756297 1.367733 3.740619 5.376288 -0.270261 -3.209457 -2.453441 0.257327 0.042428 -22.868862 -17.374666 32.540198 0.000000 0.000000 0.000000 -2.271584 0.532918 -5.765323 -1.970798 0.453414 4.323069 -21.117737 -34.922383 31.534951 0.000000 0.000000 0.000000 4.484645 0.087092 -2.321837 -1.241135 0.639102 -2.867250 -5.230676 5.290446 3.480135 10.325949 -5.211194 -12.439467 0.000000 0.000000 0.000000 -18.766618 -7.300213 0.143071 -51.510567 -7.896136 -2.257250 -4.181644 -12.698279 0.809056 0.000000 0.000000 0.000000 20.294968 -2.749284 -1.623221 59.146565 5.568361 -3.011389 3.361689 25.354669 1.932852 0.000000 0.000000 0.000000 
0.002751 0.942125 0.057022 -1.679372 0.691482 3.940062 4.883475 -0.215055 -2.109955 -1.980215 0.242141 -1.876973 -22.559875 -16.578753 33.262921 0.000000 0.000000 0.000000 -2.145438 0.486347 -5.118847 -2.585051 0.446965 2.791607 -20.378246 -34.068232 31.835129 0.000000 0.000000 0.000000 4.673277 0.141663 -3.005112 -1.312191 0.662415 -2.703597 -4.824852 5.361575 3.110901 10.102724 -5.227589 -11.777768 0.000000 0.000000 0.000000 -18.574630 -6.624595 -0.093657 -51.826774 -7.835150 -2.304151 -5.070215 -13.410457 0.955600 0.000000 0.000000 0.000000 20.015362 -2.852333 -1.777430 59.666179 5.110371 -3.186862 3.668401 23.477685 1.790556 0.000000 0.000000 0.000000 
